<svg width="324" height="59" viewBox="0 0 324 59" fill="none" xmlns="http://www.w3.org/2000/svg">
<rect width="324" height="59" rx="10" transform="matrix(-1 0 0 1 324 0)" fill="#FCA150"/>
<path d="M104.57 41.3563C97.82 41.3563 93.395 36.6312 93.395 29.8962V29.8662C93.395 23.1162 97.82 18.4062 104.57 18.4062C109.925 18.4062 113.705 21.2112 114.83 25.9812H110.735C109.85 23.1012 107.405 21.7512 104.555 21.7512C100.22 21.7512 97.565 25.0062 97.565 29.8662V29.8962C97.565 34.7562 100.22 38.0112 104.555 38.0112C107.405 38.0112 109.85 36.6612 110.735 33.7812H114.83C113.705 38.5512 109.925 41.3563 104.57 41.3563ZM126.993 41.3563C121.983 41.3563 118.833 37.9212 118.833 33.0762V33.0462C118.833 28.2012 121.983 24.7812 126.993 24.7812C132.003 24.7812 135.168 28.2012 135.168 33.0462V33.0762C135.168 37.9212 132.003 41.3563 126.993 41.3563ZM126.993 38.3562C129.768 38.3562 131.178 36.2562 131.178 33.0762V33.0462C131.178 29.8662 129.768 27.7662 126.993 27.7662C124.233 27.7662 122.808 29.8662 122.808 33.0462V33.0762C122.808 36.2562 124.233 38.3562 126.993 38.3562ZM140.448 40.9062V25.2762H144.258V27.1062C145.293 25.7112 146.733 24.8262 149.013 24.8262C152.838 24.8262 154.668 27.3462 154.668 31.4412V40.9062H150.858V32.2062C150.858 29.3862 149.778 27.9012 147.558 27.9012C145.323 27.9012 144.258 29.3862 144.258 32.2062V40.9062H140.448ZM160.763 40.9062V25.2762H164.573V27.1062C165.608 25.7112 167.048 24.8262 169.328 24.8262C173.153 24.8262 174.983 27.3462 174.983 31.4412V40.9062H171.173V32.2062C171.173 29.3862 170.093 27.9012 167.873 27.9012C165.638 27.9012 164.573 29.3862 164.573 32.2062V40.9062H160.763ZM188.204 41.3563C183.089 41.3563 180.044 37.8762 180.044 33.0312V33.0012C180.044 28.0212 183.509 24.7812 188.114 24.7812C193.439 24.7812 196.304 28.6812 196.124 34.1112V34.1262H183.974C184.259 36.7962 185.864 38.4462 188.324 38.4462C190.364 38.4462 191.564 37.6962 192.104 36.3312H195.899C195.074 39.2112 192.449 41.3563 188.204 41.3563ZM184.004 31.3812H192.179V31.3662C192.044 29.1762 190.544 27.5562 188.114 27.5562C185.969 27.5562 184.394 28.7412 184.004 31.3812ZM208.31 41.3563C203.435 41.3563 200.36 37.9362 200.36 33.0762V33.0462C200.36 28.1862 203.435 24.7812 208.31 24.7812C212.6 24.7812 215.285 27.1512 215.96 30.5262H212.135C211.685 28.6962 210.305 27.7512 208.37 27.7512C206 27.7512 204.335 29.6712 204.335 33.0462V33.0762C204.335 36.4362 206 38.3862 208.37 38.3862C210.305 38.3862 211.685 37.4262 212.135 35.5962H215.96C215.285 38.9712 212.6 41.3563 208.31 41.3563ZM227.293 40.9062C223.303 40.9062 221.788 39.5112 221.788 35.8812V28.3662H219.448V25.2762H221.788V21.1512H225.598V25.2762H229.078V28.3662H225.598V35.3562C225.598 37.3962 226.438 37.8162 228.103 37.8162H228.988V40.9062H227.293Z" fill="white"/>
</svg>
